<svg xmlns="http://www.w3.org/2000/svg" version="1.1" xmlns:xlink="http://www.w3.org/1999/xlink" xmlns:svgjs="http://svgjs.com/svgjs" width="1440" height="560" preserveAspectRatio="none" viewBox="0 0 1440 560">
    <g mask="url(&quot;#SvgjsMask1135&quot;)" fill="none">
        <path fill="rgba(242, 229, 158, 0.2)" class="donut-float1" d="M 575.503 124.049 C 556.123 124.306 540.503 134.508 540.503 147.053 L 540.503 150.424 C 540.503 150.424 540.692 161.425 540.692 166.313 C 540.692 178.604 557.247 187.066 575.503 187.404 C 593.757 187.066 610.315 178.601 610.315 166.313 C 610.315 161.425 610.503 150.424 610.503 150.424 L 610.503 147.053 C 610.503 134.508 594.882 124.306 575.503 124.049 Z M 595.449 145.805 L 599.068 142.91 C 599.729 142.384 600.65 142.544 601.126 143.275 C 601.602 144.003 601.455 145.024 600.797 145.55 L 597.177 148.445 C 596.913 148.654 596.611 148.753 596.313 148.753 C 595.855 148.753 595.407 148.522 595.118 148.082 C 594.64 147.35 594.79 146.333 595.449 145.805 Z M 584.058 132.55 L 587.679 129.651 C 588.337 129.124 589.261 129.288 589.737 130.018 C 590.213 130.746 590.066 131.763 589.408 132.291 L 585.787 135.188 C 585.523 135.394 585.222 135.498 584.921 135.498 C 584.466 135.498 584.017 135.262 583.728 134.822 C 583.249 134.093 583.399 133.076 584.058 132.55 Z M 575.577 136.926 C 582.597 137.11 588.167 139.887 588.167 143.286 C 588.167 146.679 582.593 149.457 575.577 149.644 C 568.562 149.457 562.99 146.679 562.99 143.286 C 562.99 139.887 568.562 137.11 575.577 136.926 Z M 584.73 156.304 L 581.109 159.202 C 580.847 159.41 580.546 159.511 580.245 159.511 C 579.79 159.511 579.339 159.274 579.052 158.834 C 578.573 158.107 578.721 157.09 579.382 156.562 L 583.003 153.664 C 583.661 153.136 584.583 153.301 585.061 154.032 C 585.537 154.759 585.39 155.776 584.73 156.304 Z M 561.58 132.55 L 565.201 129.651 C 565.86 129.124 566.782 129.288 567.258 130.018 C 567.736 130.746 567.589 131.763 566.928 132.291 L 563.308 135.188 C 563.046 135.394 562.745 135.498 562.444 135.498 C 561.989 135.498 561.539 135.262 561.249 134.822 C 560.771 134.093 560.921 133.076 561.58 132.55 Z M 557.957 152.559 L 561.58 149.664 C 562.241 149.138 563.161 149.297 563.637 150.029 C 564.115 150.757 563.967 151.776 563.305 152.304 L 559.686 155.199 C 559.425 155.408 559.123 155.507 558.825 155.507 C 558.367 155.507 557.917 155.276 557.628 154.834 C 557.152 154.104 557.299 153.087 557.957 152.559 Z M 550.492 147.224 L 554.113 144.326 C 554.772 143.798 555.692 143.962 556.17 144.694 C 556.648 145.421 556.501 146.437 555.84 146.965 L 552.217 149.864 C 551.958 150.072 551.657 150.172 551.356 150.172 C 550.901 150.172 550.449 149.935 550.161 149.495 C 549.683 148.769 549.83 147.752 550.492 147.224 Z M 605.347 166.892 C 605.347 176.125 590.664 182.226 575.503 182.608 C 560.372 182.226 545.658 176.125 545.658 166.892 L 545.609 158.753 L 546.484 159.753 C 548.169 161.397 550.156 162.8 552.441 164.12 L 552.441 166.875 C 552.441 168.69 553.75 170.17 555.393 170.17 C 556.288 170.17 557.082 169.73 557.598 169.042 L 557.598 174.249 C 557.598 176.068 558.973 177.584 560.617 177.584 C 562.262 177.584 563.641 176.068 563.641 174.249 L 563.641 168.513 C 563.861 168.568 564.082 168.619 564.303 168.674 L 564.303 170.17 C 564.303 171.985 565.636 173.457 567.284 173.457 C 568.541 173.457 569.608 172.595 570.051 171.38 L 570.051 177.875 C 570.051 179.694 571.425 181.212 573.07 181.212 C 574.715 181.212 576.093 179.694 576.093 177.875 L 576.093 170.043 C 577.641 169.994 579.188 169.867 580.735 169.699 L 580.735 170.17 C 580.735 171.985 582.073 173.457 583.717 173.457 C 585.362 173.457 586.703 171.985 586.703 170.17 L 586.703 168.674 C 588.693 168.19 590.771 167.629 592.647 166.919 C 592.67 168.718 593.965 170.17 595.597 170.17 C 597.241 170.17 598.565 168.69 598.565 166.875 L 598.565 164.12 C 600.851 162.8 602.837 161.397 604.521 159.753 L 605.394 158.753 L 605.347 166.892 Z"></path>
        <path fill="rgba(255, 255, 255, 0.2)" class="donut-float2" d="M 460.503 331.392 C 432.817 331.72 410.503 344.702 410.503 360.672 L 410.503 364.959 C 410.503 364.959 410.773 378.962 410.773 385.182 C 410.773 400.825 434.423 411.595 460.503 412.025 C 486.581 411.595 510.234 400.823 510.234 385.182 C 510.234 378.962 510.503 364.959 510.503 364.959 L 510.503 360.672 C 510.503 344.702 488.189 331.72 460.503 331.392 Z M 488.996 359.082 L 494.169 355.396 C 495.112 354.726 496.428 354.932 497.109 355.861 C 497.789 356.788 497.579 358.086 496.638 358.756 L 491.465 362.441 C 491.09 362.707 490.659 362.834 490.232 362.834 C 489.579 362.834 488.937 362.538 488.524 361.978 C 487.842 361.049 488.055 359.753 488.996 359.082 Z M 472.724 342.21 L 477.897 338.522 C 478.839 337.852 480.156 338.059 480.836 338.988 C 481.518 339.914 481.308 341.21 480.367 341.882 L 475.194 345.568 C 474.819 345.832 474.388 345.962 473.959 345.962 C 473.308 345.962 472.665 345.664 472.253 345.104 C 471.57 344.175 471.783 342.88 472.724 342.21 Z M 460.61 347.78 C 470.636 348.016 478.594 351.55 478.594 355.874 C 478.594 360.196 470.632 363.73 460.61 363.967 C 450.588 363.73 442.628 360.196 442.628 355.874 C 442.628 351.55 450.588 348.016 460.61 347.78 Z M 473.684 372.445 L 468.512 376.131 C 468.138 376.396 467.708 376.525 467.279 376.525 C 466.628 376.525 465.983 376.225 465.573 375.665 C 464.89 374.738 465.101 373.443 466.044 372.771 L 471.217 369.085 C 472.158 368.413 473.474 368.622 474.156 369.551 C 474.838 370.478 474.628 371.773 473.684 372.445 Z M 440.613 342.21 L 445.785 338.522 C 446.727 337.852 448.044 338.059 448.724 338.988 C 449.407 339.914 449.196 341.21 448.253 341.882 L 443.082 345.568 C 442.708 345.832 442.276 345.962 441.848 345.962 C 441.196 345.962 440.554 345.664 440.141 345.104 C 439.458 344.175 439.672 342.88 440.613 342.21 Z M 435.439 367.677 L 440.613 363.992 C 441.556 363.322 442.872 363.528 443.552 364.457 C 444.234 365.384 444.023 366.68 443.079 367.352 L 437.908 371.037 C 437.534 371.302 437.103 371.43 436.676 371.43 C 436.023 371.43 435.381 371.134 434.968 370.572 C 434.287 369.644 434.498 368.349 435.439 367.677 Z M 424.773 360.886 L 429.945 357.2 C 430.887 356.528 432.202 356.737 432.884 357.666 C 433.567 358.593 433.356 359.888 432.413 360.56 L 427.239 364.246 C 426.868 364.511 426.436 364.639 426.008 364.639 C 425.356 364.639 424.712 364.34 424.301 363.78 C 423.618 362.854 423.829 361.558 424.773 360.886 Z M 503.139 385.92 C 503.139 397.671 482.162 405.435 460.503 405.921 C 438.888 405.435 417.868 397.671 417.868 385.92 L 417.796 375.561 L 419.048 376.833 C 421.454 378.926 424.293 380.712 427.556 382.391 L 427.556 385.898 C 427.556 388.209 429.428 390.091 431.774 390.091 C 433.053 390.091 434.188 389.532 434.924 388.656 L 434.924 395.282 C 434.924 397.598 436.89 399.527 439.239 399.527 C 441.589 399.527 443.556 397.598 443.556 395.282 L 443.556 387.982 C 443.872 388.052 444.188 388.117 444.503 388.187 L 444.503 390.091 C 444.503 392.401 446.408 394.274 448.762 394.274 C 450.556 394.274 452.082 393.179 452.714 391.631 L 452.714 399.899 C 452.714 402.212 454.679 404.144 457.029 404.144 C 459.378 404.144 461.345 402.212 461.345 399.899 L 461.345 389.93 C 463.556 389.867 465.767 389.705 467.977 389.492 L 467.977 390.091 C 467.977 392.401 469.89 394.274 472.236 394.274 C 474.589 394.274 476.503 392.401 476.503 390.091 L 476.503 388.187 C 479.345 387.571 482.314 386.857 484.994 385.954 C 485.029 388.243 486.879 390.091 489.21 390.091 C 491.559 390.091 493.45 388.209 493.45 385.898 L 493.45 382.391 C 496.714 380.712 499.552 378.926 501.958 376.833 L 503.204 375.561 L 503.139 385.92 Z"></path>
        <path fill="rgba(255, 255, 255, 0.2)" class="donut-float3" d="M 838.003 273.797 C 806.164 274.219 780.503 290.911 780.503 311.443 L 780.503 316.954 C 780.503 316.954 780.813 334.959 780.813 342.955 C 780.813 363.068 808.011 376.914 838.003 377.468 C 867.993 376.914 895.193 363.066 895.193 342.955 C 895.193 334.959 895.503 316.954 895.503 316.954 L 895.503 311.443 C 895.503 290.911 869.842 274.219 838.003 273.797 Z M 870.77 309.399 L 876.718 304.659 C 877.803 303.797 879.316 304.063 880.1 305.256 C 880.882 306.449 880.64 308.117 879.558 308.979 L 873.609 313.716 C 873.178 314.059 872.682 314.223 872.191 314.223 C 871.44 314.223 870.702 313.841 870.227 313.121 C 869.443 311.928 869.687 310.26 870.77 309.399 Z M 852.057 287.705 L 858.006 282.965 C 859.09 282.103 860.604 282.37 861.386 283.563 C 862.17 284.755 861.928 286.421 860.846 287.285 L 854.897 292.023 C 854.466 292.363 853.97 292.529 853.478 292.529 C 852.728 292.529 851.989 292.147 851.515 291.427 C 850.73 290.232 850.975 288.567 852.057 287.705 Z M 838.126 294.867 C 849.656 295.171 858.807 299.715 858.807 305.273 C 858.807 310.831 849.651 315.375 838.126 315.679 C 826.6 315.375 817.446 310.831 817.446 305.273 C 817.446 299.715 826.6 295.171 838.126 294.867 Z M 853.161 326.58 L 847.213 331.318 C 846.784 331.659 846.288 331.824 845.796 331.824 C 845.046 331.824 844.305 331.44 843.833 330.72 C 843.048 329.527 843.291 327.862 844.375 326.998 L 850.324 322.26 C 851.406 321.396 852.919 321.665 853.704 322.858 C 854.488 324.051 854.246 325.716 853.161 326.58 Z M 815.129 287.705 L 821.077 282.965 C 822.16 282.103 823.675 282.37 824.457 283.563 C 825.242 284.755 825 286.421 823.915 287.285 L 817.969 292.023 C 817.538 292.363 817.042 292.529 816.55 292.529 C 815.8 292.529 815.061 292.147 814.587 291.427 C 813.802 290.232 814.047 288.567 815.129 287.705 Z M 809.18 320.448 L 815.129 315.711 C 816.214 314.849 817.727 315.115 818.509 316.308 C 819.293 317.501 819.051 319.167 817.966 320.031 L 812.018 324.768 C 811.589 325.109 811.093 325.275 810.602 325.275 C 809.851 325.275 809.113 324.893 808.638 324.171 C 807.854 322.978 808.098 321.312 809.18 320.448 Z M 796.913 311.717 L 802.861 306.979 C 803.944 306.115 805.457 306.384 806.241 307.577 C 807.026 308.77 806.784 310.435 805.699 311.299 L 799.75 316.037 C 799.322 316.378 798.826 316.543 798.334 316.543 C 797.584 316.543 796.843 316.159 796.371 315.439 C 795.586 314.247 795.828 312.581 796.913 311.717 Z M 887.034 343.905 C 887.034 359.012 862.911 368.995 838.003 369.62 C 813.146 368.995 788.972 359.012 788.972 343.905 L 788.89 330.586 L 790.33 332.22 C 793.097 334.913 796.361 337.209 800.114 339.367 L 800.114 343.877 C 800.114 346.848 802.266 349.266 804.965 349.266 C 806.435 349.266 807.74 348.549 808.587 347.423 L 808.587 355.941 C 808.587 358.919 810.848 361.399 813.55 361.399 C 816.252 361.399 818.514 358.919 818.514 355.941 L 818.514 346.555 C 818.877 346.645 819.24 346.73 819.603 346.818 L 819.603 349.266 C 819.603 352.238 821.794 354.645 824.501 354.645 C 826.564 354.645 828.319 353.238 829.045 351.246 L 829.045 361.878 C 829.045 364.851 831.306 367.335 834.008 367.335 C 836.71 367.335 838.971 364.851 838.971 361.878 L 838.971 349.061 C 841.514 348.979 844.056 348.77 846.598 348.497 L 846.598 349.266 C 846.598 352.238 848.798 354.645 851.496 354.645 C 854.202 354.645 856.403 352.238 856.403 349.266 L 856.403 346.818 C 859.671 346.027 863.085 345.11 866.167 343.949 C 866.208 346.89 868.336 349.266 871.016 349.266 C 873.718 349.266 875.892 346.848 875.892 343.877 L 875.892 339.367 C 879.645 337.209 882.909 334.913 885.676 332.22 L 887.109 330.586 L 887.034 343.905 Z"></path>
    </g>
    <defs>
        <mask id="SvgjsMask1135">
            <rect width="100%" height="100%" fill="#ffffff"></rect>
        </mask>
        <style>
            @keyframes float1 {
                0%{transform: translate(0, 0)}
                50%{transform: translate(-5px, 5px)}
                100%{transform: translate(0, 0)}
            }

            .donut-float1 {
                animation: float1 4s infinite;
            }

            @keyframes float2 {
                0%{transform: translate(0, 0)}
                50%{transform: translate(15px, 0)}
                100%{transform: translate(0, 0)}
            }

            .donut-float2 {
                animation: float2 5s infinite;
            }

            @keyframes float3 {
                0%{transform: translate(0, 0)}
                50%{transform: translate(0, -10px)}
                100%{transform: translate(0, 0)}
            }

            .donut-float3 {
                animation: float3 6s infinite;
            }
        </style>
    </defs>
</svg>